<?xml version="1.0" encoding="iso-8859-1"?>
<!-- Uploaded to: SVG Repo, www.svgrepo.com, Generator: SVG Repo Mixer Tools -->
<!DOCTYPE svg PUBLIC "-//W3C//DTD SVG 1.1//EN" "http://www.w3.org/Graphics/SVG/1.1/DTD/svg11.dtd">
<svg fill="#000000" height="800px" width="800px" version="1.1" id="Capa_1" xmlns="http://www.w3.org/2000/svg" xmlns:xlink="http://www.w3.org/1999/xlink" 
	 viewBox="0 0 376.996 376.996" xml:space="preserve">
<path d="M375.061,5.178c-1.028-1.029-2.448-1.596-3.998-1.596c-2.482,0-7.647,0-81.1,44.067
	c-37.485,22.489-74.793,45.71-81.82,50.366l-26.601,17.818c-18.197,12.33-34.638,23.788-47.545,33.136l-1.342,0.972l-12.838,40.902
	l-7.438-25.859l-5.925,5.203c-4.573,4.016-5.821,5.819-6.44,7.057c-5.284,10.569-6.074,41.948-6.168,54.948
	c-0.08,10.938,0.204,21.595,0.798,30.005c0.243,3.443,0.512,6.187,0.802,8.394l-5.062,5.063l-8.026-40.034l-6.706,9.185
	c-2.506,3.434-4.876,6.873-7.042,10.223l-0.619,0.957l-4.479,35.344l-7.529-15.269l-3.535,12.539
	c-3.218,11.413-2.653,19.656-0.556,25.554L1.962,364.088c-2.536,2.535-2.068,4.958-1.564,6.177c0.792,1.913,2.658,3.148,4.755,3.148
	c1.228,0,2.249-0.425,2.908-0.744L32.997,360.6c1.484-0.719,3.407-2.088,4.572-3.256l28.7-28.768c3.2,1.141,6.793,1.72,10.765,1.721
	c0,0,0,0,0.001,0c4.507,0,9.501-0.764,14.842-2.27l12.538-3.535l-15.268-7.529l35.343-4.479l0.957-0.619
	c3.335-2.158,6.774-4.527,10.222-7.042l9.191-6.705l-40.171-8.054l6.023-6.037c2.12,0.28,4.623,0.55,7.602,0.805
	c9.328,0.798,20.98,1.237,32.811,1.237c0.001,0,0.001,0,0.002,0c15.266,0,42.331-0.729,52.097-5.612
	c2.32-1.16,6.146-4.439,18.325-20.446l5.385-7.078l-43.018-4.485l52.46-8.604l1.209-1.691c9.077-12.712,19.312-27.479,30.418-43.895
	l4.954-7.321l-48.612-2.608l58.508-12.227l1.134-1.712c12.476-18.817,25.019-38.182,36.272-55.999l4.529-7.172l-45.661-2.643
	l54.503-11.603l1.122-1.825c13.966-22.712,24.67-41.139,31.816-54.769C378.181,14.236,378.559,8.674,375.061,5.178z"/>
</svg>